<svg id="svg" version="1.1" xmlns="http://www.w3.org/2000/svg" xmlns:xlink="http://www.w3.org/1999/xlink" width="400" height="400" viewBox="0, 0, 400,400"><g id="svgg"><path id="path0" d="M200.000 111.485 C 200.000 122.218,200.040 123.002,200.583 123.029 C 205.305 123.263,209.371 124.007,213.185 125.334 C 250.216 138.222,249.517 191.556,212.167 202.992 C 208.750 204.038,207.055 204.338,201.833 204.821 C 201.100 204.889,200.387 204.957,200.250 204.972 C 200.112 204.988,200.000 210.174,200.000 216.497 L 200.000 227.993 202.417 227.859 C 203.746 227.785,205.555 227.711,206.436 227.695 C 207.318 227.680,207.970 227.554,207.885 227.417 C 207.800 227.279,208.279 227.156,208.949 227.143 C 210.235 227.119,213.621 226.556,213.917 226.317 C 213.963 226.280,214.262 226.220,214.583 226.182 C 216.355 225.977,217.638 225.557,217.446 225.245 C 217.320 225.042,217.391 224.996,217.617 225.136 C 217.968 225.353,219.549 224.900,223.577 223.429 C 224.367 223.141,224.894 222.764,224.775 222.572 C 224.658 222.383,224.726 222.330,224.926 222.454 C 225.309 222.691,229.023 221.137,229.371 220.594 C 229.483 220.419,229.670 220.289,229.787 220.305 C 230.435 220.391,230.686 220.300,230.523 220.038 C 230.423 219.875,230.601 219.763,230.920 219.788 C 231.241 219.813,231.459 219.636,231.408 219.392 C 231.358 219.149,231.470 219.045,231.658 219.161 C 232.109 219.440,234.741 217.859,234.418 217.503 C 234.280 217.351,234.349 217.331,234.571 217.459 C 234.794 217.586,235.281 217.386,235.655 217.012 C 236.028 216.639,236.446 216.335,236.583 216.336 C 236.721 216.338,237.058 216.148,237.333 215.915 C 237.608 215.681,238.323 215.144,238.921 214.720 C 239.519 214.296,239.908 213.787,239.786 213.590 C 239.664 213.392,239.712 213.322,239.894 213.435 C 240.362 213.723,241.724 212.696,241.454 212.259 C 241.325 212.050,241.384 211.992,241.594 212.122 C 241.797 212.247,243.180 211.123,244.729 209.573 C 247.965 206.335,249.744 204.337,249.406 204.323 C 249.275 204.318,249.404 204.174,249.695 204.004 C 249.985 203.834,250.660 203.051,251.194 202.264 C 251.728 201.477,252.241 200.758,252.333 200.667 C 253.416 199.596,258.234 191.004,257.757 190.995 C 257.616 190.992,257.654 190.880,257.843 190.745 C 258.272 190.438,259.444 187.812,259.444 187.156 C 259.444 186.887,259.542 186.667,259.661 186.667 C 260.027 186.667,261.051 183.019,260.800 182.612 C 260.644 182.360,260.712 182.322,261.001 182.501 C 261.327 182.702,261.390 182.587,261.250 182.052 C 261.147 181.656,261.182 181.406,261.328 181.497 C 261.525 181.619,262.119 179.646,262.052 179.089 C 262.047 179.047,262.180 178.536,262.347 177.954 C 262.513 177.372,262.731 176.351,262.831 175.685 C 262.930 175.018,263.079 174.122,263.162 173.693 C 264.007 169.305,264.007 156.793,263.161 153.667 C 263.019 153.141,262.753 151.832,262.451 150.180 C 261.202 143.334,255.878 131.635,251.446 126.000 C 241.992 113.979,232.445 107.275,218.167 102.629 C 217.433 102.390,216.758 102.179,216.667 102.160 C 216.575 102.141,215.675 101.945,214.667 101.725 C 212.271 101.201,211.470 101.051,209.847 100.820 C 209.106 100.714,208.125 100.569,207.667 100.497 C 207.208 100.424,205.296 100.276,203.417 100.167 L 200.000 99.970 200.000 111.485 " stroke="none" fill="#6ca4ac" fill-rule="evenodd"></path><path id="path1" d="M200.000 91.959 L 200.000 100.000 200.917 100.024 C 203.542 100.094,208.254 100.512,210.083 100.837 C 210.588 100.927,211.402 101.070,211.893 101.155 C 212.384 101.241,213.621 101.494,214.643 101.718 C 215.664 101.942,216.575 102.141,216.667 102.160 C 216.758 102.179,217.433 102.390,218.167 102.629 C 232.445 107.275,241.992 113.979,251.446 126.000 C 255.878 131.635,261.202 143.334,262.451 150.180 C 262.753 151.832,263.019 153.141,263.161 153.667 C 264.007 156.793,264.007 169.305,263.162 173.693 C 263.079 174.122,262.930 175.018,262.831 175.685 C 262.731 176.351,262.513 177.372,262.347 177.954 C 262.180 178.536,262.047 179.047,262.052 179.089 C 262.119 179.646,261.525 181.619,261.328 181.497 C 261.182 181.406,261.147 181.656,261.250 182.052 C 261.390 182.587,261.327 182.702,261.001 182.501 C 260.712 182.322,260.644 182.360,260.800 182.612 C 261.051 183.019,260.027 186.667,259.661 186.667 C 259.542 186.667,259.444 186.887,259.444 187.156 C 259.444 187.812,258.272 190.438,257.843 190.745 C 257.654 190.880,257.616 190.992,257.757 190.995 C 258.234 191.004,253.416 199.596,252.333 200.667 C 252.241 200.758,251.728 201.477,251.194 202.264 C 250.660 203.051,249.985 203.834,249.695 204.004 C 249.404 204.174,249.275 204.318,249.406 204.323 C 249.744 204.337,247.965 206.335,244.729 209.573 C 243.180 211.123,241.797 212.247,241.594 212.122 C 241.384 211.992,241.325 212.050,241.454 212.259 C 241.724 212.696,240.362 213.723,239.894 213.435 C 239.712 213.322,239.664 213.392,239.786 213.590 C 239.908 213.787,239.519 214.296,238.921 214.720 C 238.323 215.144,237.566 215.718,237.239 215.995 C 236.912 216.273,236.575 216.463,236.489 216.417 C 236.403 216.371,236.028 216.639,235.655 217.012 C 235.281 217.386,234.794 217.586,234.571 217.459 C 234.349 217.331,234.280 217.351,234.418 217.503 C 234.741 217.859,232.109 219.440,231.658 219.161 C 231.470 219.045,231.358 219.149,231.408 219.392 C 231.459 219.636,231.241 219.813,230.920 219.788 C 230.601 219.763,230.423 219.875,230.523 220.038 C 230.686 220.300,230.435 220.391,229.787 220.305 C 229.670 220.289,229.483 220.419,229.371 220.594 C 229.023 221.137,225.309 222.691,224.926 222.454 C 224.726 222.330,224.658 222.383,224.775 222.572 C 224.894 222.764,224.367 223.141,223.577 223.429 C 219.549 224.900,217.968 225.353,217.617 225.136 C 217.391 224.996,217.320 225.042,217.446 225.245 C 217.638 225.557,216.355 225.977,214.583 226.182 C 214.262 226.220,213.963 226.280,213.917 226.317 C 213.621 226.556,210.235 227.119,208.949 227.143 C 208.279 227.156,207.800 227.279,207.885 227.417 C 207.970 227.554,207.280 227.685,206.353 227.708 C 205.426 227.731,204.067 227.787,203.333 227.833 C 202.600 227.879,201.550 227.935,201.000 227.958 L 200.000 228.000 200.000 236.046 L 200.000 244.092 204.083 243.860 C 206.329 243.733,208.467 243.568,208.833 243.494 C 209.200 243.419,210.250 243.270,211.167 243.163 C 244.104 239.305,273.100 211.331,278.647 178.061 C 279.671 171.915,279.712 171.485,279.821 165.500 C 280.617 122.028,247.611 86.726,203.750 84.139 L 200.000 83.918 200.000 91.959 M198.254 123.236 C 198.669 123.315,199.269 123.312,199.587 123.229 C 199.906 123.146,199.567 123.080,198.833 123.084 C 198.100 123.088,197.839 123.156,198.254 123.236 M159.095 163.500 C 159.098 164.417,159.163 164.752,159.239 164.245 C 159.316 163.739,159.314 162.989,159.235 162.579 C 159.156 162.169,159.093 162.583,159.095 163.500 M198.417 204.896 C 198.737 204.980,199.262 204.980,199.583 204.896 C 199.904 204.813,199.642 204.744,199.000 204.744 C 198.358 204.744,198.096 204.813,198.417 204.896 " stroke="none" fill="#5c8c8c" fill-rule="evenodd"></path><path id="path2" d="M200.000 133.508 L 200.000 143.904 197.917 144.101 C 186.124 145.217,176.546 157.870,179.633 168.256 C 179.811 168.855,179.942 169.380,179.924 169.423 C 178.898 171.824,188.699 183.383,190.708 182.141 C 190.940 181.997,191.015 182.039,190.889 182.243 C 190.457 182.942,195.202 184.438,198.833 184.748 L 199.833 184.833 199.922 194.797 L 200.010 204.761 203.088 204.551 C 225.827 202.995,243.792 181.135,240.523 159.000 C 240.060 155.860,239.867 154.951,239.127 152.395 C 235.547 140.040,225.645 129.626,213.500 125.440 C 209.778 124.157,205.722 123.382,201.750 123.195 L 200.000 123.112 200.000 133.508 " stroke="none" fill="#c3dada" fill-rule="evenodd"></path><path id="path3" d="M191.667 124.140 C 175.073 127.757,163.467 139.672,159.822 156.833 C 155.852 175.523,168.270 196.298,187.202 202.641 C 191.105 203.948,201.853 205.606,200.331 204.666 C 200.141 204.548,199.974 200.486,199.922 194.650 L 199.833 184.833 198.833 184.748 C 195.202 184.438,190.457 182.942,190.889 182.243 C 191.015 182.039,190.940 181.997,190.708 182.141 C 188.654 183.410,180.357 173.704,179.979 169.589 C 179.967 169.455,179.811 168.855,179.633 168.256 C 176.546 157.870,186.124 145.217,197.917 144.101 L 200.000 143.904 200.000 133.618 L 200.000 123.333 197.583 123.355 C 196.254 123.367,193.592 123.720,191.667 124.140 " stroke="none" fill="#acacb4" fill-rule="evenodd"></path><path id="path4" d="M194.304 64.130 C 194.228 64.200,192.667 64.358,190.833 64.482 C 189.000 64.605,187.275 64.765,187.000 64.837 C 186.725 64.908,185.894 65.052,185.153 65.156 C 184.413 65.260,183.494 65.405,183.112 65.478 C 182.730 65.552,181.881 65.697,181.224 65.802 C 166.095 68.206,147.239 77.354,134.558 88.439 C 82.183 134.229,90.720 217.006,151.351 251.274 C 159.880 256.094,173.311 261.066,180.833 262.186 C 181.567 262.295,182.767 262.513,183.500 262.669 C 184.233 262.825,185.883 263.056,187.167 263.182 C 188.450 263.308,189.800 263.484,190.167 263.574 C 191.931 264.004,206.724 263.938,210.654 263.481 C 281.803 255.215,321.640 179.188,287.845 116.167 C 273.068 88.611,245.523 69.617,213.333 64.786 C 210.209 64.317,194.681 63.782,194.304 64.130 M210.167 84.706 C 250.728 89.961,280.571 124.577,279.821 165.500 C 279.712 171.485,279.671 171.915,278.647 178.061 C 273.100 211.331,244.104 239.305,211.167 243.163 C 210.250 243.270,209.200 243.419,208.833 243.494 C 208.467 243.568,206.329 243.733,204.083 243.860 L 200.000 244.092 200.000 224.546 C 200.000 206.156,199.965 205.000,199.417 204.992 C 180.439 204.729,163.346 190.299,159.839 171.580 C 155.218 146.918,174.400 123.276,199.250 123.008 L 200.000 123.000 200.000 103.459 L 200.000 83.918 203.750 84.139 C 205.813 84.261,208.700 84.516,210.167 84.706 " stroke="none" fill="#545c6c" fill-rule="evenodd"></path></g></svg>